<svg width="17" height="15" viewBox="0 0 17 15" fill="none" xmlns="http://www.w3.org/2000/svg">
<path d="M1.83333 2.625H15.1667M11.8333 10.75H9.33333M5.16667 7.5L6.83333 9.125L5.16667 10.75M1 11.4002V3.60016C1 2.69007 1 2.23469 1.18166 1.88708C1.34144 1.58132 1.59623 1.33291 1.90983 1.17711C2.26635 1 2.73341 1 3.66683 1H13.3335C14.2669 1 14.733 1 15.0895 1.17711C15.4031 1.33291 15.6587 1.58132 15.8185 1.88708C16 2.23435 16 2.68918 16 3.59749V11.4025C16 12.3108 16 12.765 15.8185 13.1123C15.6587 13.418 15.4031 13.6673 15.0895 13.8231C14.7333 14 14.2675 14 13.3359 14L3.66412 14C2.7325 14 2.26601 14 1.90983 13.8231C1.59623 13.6673 1.34144 13.418 1.18166 13.1123C1 12.7646 1 12.3102 1 11.4002Z" stroke="#2F2F2F" stroke-width="2" stroke-linecap="square" stroke-linejoin="round"/>
</svg>
