<svg width="20" height="20" viewBox="0 0 20 20" fill="none" xmlns="http://www.w3.org/2000/svg">
<path d="M2 5.80017V14.2002C2 15.1803 2 15.6696 2.19377 16.044C2.36421 16.3733 2.63598 16.6417 2.97049 16.8094C3.35041 17 3.848 17 4.84173 17L15.1583 17C16.152 17 16.6489 17 17.0288 16.8094C17.3633 16.6417 17.636 16.3733 17.8064 16.044C18 15.67 18 15.1809 18 14.2027V5.79729C18 4.81912 18 4.3293 17.8064 3.95532C17.636 3.62604 17.3633 3.35852 17.0288 3.19074C16.6485 3 16.1514 3 15.1557 3H4.84462C3.84897 3 3.35077 3 2.97049 3.19074C2.63598 3.35852 2.36421 3.62604 2.19377 3.95532C2 4.32967 2 4.82008 2 5.80017Z" fill="#C2C2C2"/>
<path d="M2.88889 4.75H17.1111M13.5556 13.5H10.8889M6.44444 10L8.22222 11.75L6.44444 13.5M2 14.2002V5.80017C2 4.82008 2 4.32967 2.19377 3.95532C2.36421 3.62604 2.63598 3.35852 2.97049 3.19074C3.35077 3 3.84897 3 4.84462 3H15.1557C16.1514 3 16.6485 3 17.0288 3.19074C17.3633 3.35852 17.636 3.62604 17.8064 3.95532C18 4.3293 18 4.81912 18 5.79729V14.2027C18 15.1809 18 15.67 17.8064 16.044C17.636 16.3733 17.3633 16.6417 17.0288 16.8094C16.6489 17 16.152 17 15.1583 17L4.84173 17C3.848 17 3.35041 17 2.97049 16.8094C2.63598 16.6417 2.36421 16.3733 2.19377 16.044C2 15.6696 2 15.1803 2 14.2002Z" stroke="#2F2F2F" stroke-width="2" stroke-linecap="square" stroke-linejoin="round"/>
</svg>
