<svg width="120" height="120" viewBox="0 0 120 120" fill="none" xmlns="http://www.w3.org/2000/svg">
<path fill-rule="evenodd" clip-rule="evenodd" d="M60.0496 0C26.8437 0 0 27.0416 0 60.4958C0 87.2376 17.1997 109.874 41.0603 117.886C44.0435 118.488 45.1362 116.584 45.1362 114.982C45.1362 113.58 45.0378 108.773 45.0378 103.764C28.3335 107.37 24.855 96.5522 24.855 96.5522C22.1705 89.541 18.1929 87.7391 18.1929 87.7391C12.7255 84.0331 18.5911 84.0331 18.5911 84.0331C24.6558 84.4338 27.8381 90.2429 27.8381 90.2429C33.2059 99.4567 41.8555 96.8533 45.3353 95.2505C45.8319 91.3442 47.4237 88.64 49.1138 87.138C35.7908 85.7355 21.7734 80.5275 21.7734 57.2902C21.7734 50.6797 24.158 45.2714 27.9365 41.0652C27.3403 39.5631 25.252 33.3522 28.5338 25.0393C28.5338 25.0393 33.6042 23.4365 45.0366 31.2491C49.9313 29.9248 54.979 29.2512 60.0496 29.2455C65.12 29.2455 70.2886 29.9474 75.0614 31.2491C86.4951 23.4365 91.5655 25.0393 91.5655 25.0393C94.8473 33.3522 92.7577 39.5631 92.1616 41.0652C96.0396 45.2714 98.3259 50.6797 98.3259 57.2902C98.3259 80.5275 84.3085 85.6347 70.886 87.138C73.0739 89.0407 74.9619 92.6459 74.9619 98.3554C74.9619 106.468 74.8635 112.979 74.8635 114.981C74.8635 116.584 75.9575 118.488 78.9395 117.887C102.8 109.873 120 87.2376 120 60.4958C120.098 27.0416 93.156 0 60.0496 0Z" fill="#2F2F2F"/>
</svg>
