<svg width="120" height="120" viewBox="0 0 120 120" fill="none" xmlns="http://www.w3.org/2000/svg">
<g clip-path="url(#clip0_30_503)">
<path d="M111.117 0H8.85938C3.96094 0 0 3.86719 0 8.64844V111.328C0 116.109 3.96094 120 8.85938 120H111.117C116.016 120 120 116.109 120 111.352V8.64844C120 3.86719 116.016 0 111.117 0ZM35.6016 102.258H17.7891V44.9766H35.6016V102.258ZM26.6953 37.1719C20.9766 37.1719 16.3594 32.5547 16.3594 26.8594C16.3594 21.1641 20.9766 16.5469 26.6953 16.5469C32.3906 16.5469 37.0078 21.1641 37.0078 26.8594C37.0078 32.5312 32.3906 37.1719 26.6953 37.1719ZM102.258 102.258H84.4688V74.4141C84.4688 67.7812 84.3516 59.2266 75.2109 59.2266C65.9531 59.2266 64.5469 66.4688 64.5469 73.9453V102.258H46.7813V44.9766H63.8437V52.8047H64.0781C66.4453 48.3047 72.2578 43.5469 80.9063 43.5469C98.9297 43.5469 102.258 55.4063 102.258 70.8281V102.258Z" fill="#2F2F2F"/>
</g>
<defs>
<clipPath id="clip0_30_503">
<rect width="120" height="120" fill="white"/>
</clipPath>
</defs>
</svg>
