<svg width="17" height="15" viewBox="0 0 17 15" fill="none" xmlns="http://www.w3.org/2000/svg">
<path d="M1 2.625H1.01599M1.01599 2.625H15.9841M1.01599 2.625C1 2.88043 1 3.1953 1 3.60016V11.4002C1 12.3102 1 12.7646 1.18166 13.1123C1.34144 13.418 1.59623 13.6673 1.90983 13.8231C2.266 14 2.7325 14 3.66412 14L13.3359 14C14.2675 14 14.7333 14 15.0895 13.8231C15.4031 13.6673 15.6587 13.418 15.8185 13.1123C16 12.765 16 12.3108 16 11.4025L16 3.59749C16 3.19392 16 2.87987 15.9841 2.625M1.01599 2.625C1.03595 2.30624 1.08081 2.08006 1.18166 1.88708C1.34144 1.58132 1.59623 1.33291 1.90983 1.17711C2.26635 1 2.73341 1 3.66683 1H13.3335C14.2669 1 14.733 1 15.0895 1.17711C15.4031 1.33291 15.6587 1.58132 15.8185 1.88708C15.9194 2.08006 15.9642 2.30624 15.9841 2.625M15.9841 2.625H16M11 6.6875L7.66667 9.9375L6 8.3125" stroke="#2F2F2F" stroke-width="2" stroke-linecap="square" stroke-linejoin="round"/>
</svg>
