<svg width="324" height="103" viewBox="0 0 324 103" fill="none" xmlns="http://www.w3.org/2000/svg">
<path d="M45.1098 57.8058C44.7899 55.5799 44.296 53.5375 43.6853 51.5246C43.5322 51.0202 43.3994 50.4787 42.9286 50.0619C42.0805 49.9866 41.4777 50.6045 40.8045 50.9839C36.395 53.4693 31.9916 55.9715 26.8881 56.7419C17.7772 58.1174 10.5945 54.7151 5.41364 47.315C-2.09639 36.588 -1.40101 25.5479 5.08577 14.6284C8.57967 8.74691 13.2648 4.03953 19.7677 1.55289C27.6106 -1.44616 39.5161 -0.672718 46.8725 8.99376C50.9759 14.3857 53.7177 20.286 55.4355 26.7774C57.3521 34.0203 59.2518 41.2653 60.1898 48.718C61.191 56.6729 61.1257 64.6584 60.7332 72.6479C60.5899 75.5646 60.2012 78.4562 59.5143 81.2889C57.1783 90.9224 51.2779 97.4153 42.0135 100.637C33.0715 103.747 24.019 103.766 14.9921 100.818C13.709 100.399 12.5115 99.8007 11.3538 99.1052C5.74996 95.7381 5.0651 89.3544 7.54242 84.5371C8.96649 81.768 11.7621 81.0594 15.0655 82.476C17.1388 83.3652 19.181 84.339 21.2929 85.1231C25.1577 86.558 29.1202 87.2793 33.2851 86.7451C36.8332 86.2901 39.5397 84.6173 41.5033 81.6653C43.9751 77.9492 45.2746 73.845 45.6401 69.3903C45.9557 65.5437 45.6742 61.7427 45.1098 57.8058ZM22.4266 42.5897C24.6362 43.2289 26.7704 43.0312 28.8539 42.0552C31.2065 40.9533 33.3875 39.6099 35.2648 37.7816C37.2128 35.8844 38.2709 33.6483 38.2646 30.8749C38.2539 26.0912 37.4247 21.5217 34.8939 17.3993C33.2054 14.6487 30.6212 13.4511 27.9149 14.4562C20.6031 17.1719 13.9445 22.7722 14.8046 32.7436C15.2058 37.3956 18.1072 41.4607 22.4266 42.5897Z" fill="black"/>
<path d="M171.78 64.2642C169.001 66.8587 165.943 68.1379 162.105 67.9882C155.228 67.7202 148.38 67.4297 141.9 64.8455C133.038 61.3119 128.279 54.6492 127.268 45.3075C125.962 33.2337 129.484 22.476 136.512 12.7291C140.95 6.57256 147.231 3.70249 154.631 3.13547C160.715 2.66926 166.679 3.42041 172.565 5.17194C181.935 7.96044 183.597 15.519 180.719 22.5371C177.426 30.5673 171.229 35.939 163.135 39.1255C158.87 40.8047 154.41 41.2055 149.865 41.0535C147.99 40.9908 146.111 41.016 144.234 41.0457C143.029 41.0648 142.532 41.616 142.746 42.9027C143.509 47.4958 145.233 49.3656 149.797 50.4694C154.251 51.5465 158.823 51.5601 163.345 52.022C166.808 52.3757 170.294 52.6486 173.573 53.9227C176.697 55.1366 177.295 57.1114 175.542 59.9724C174.553 61.5859 173.221 62.8946 171.78 64.2642ZM156.338 25.0813C158.523 23.9615 160.811 22.9904 162.608 21.2625C163.721 20.1926 163.532 19.4514 162.067 18.9454C160.248 18.3173 158.345 18.4886 156.497 18.6617C152.303 19.0545 148.831 20.8654 146.332 24.3163C145.94 24.8586 145.316 25.4582 145.65 26.1695C146.031 26.9822 146.925 27.0237 147.741 27.0622C150.708 27.2022 153.438 26.3137 156.338 25.0813Z" fill="black"/>
<path d="M295.424 52.7457C295.605 55.4841 295.757 58.0742 295.96 60.6605C296.111 62.5882 295.84 64.4524 295.103 66.2272C293.74 69.5094 290.332 70.7252 285.987 69.5778C283.484 68.9166 281.903 67.4994 281.315 64.9032C279.285 55.929 277.887 46.8482 276.405 37.7799C275.637 33.0852 274.775 28.4059 273.668 23.7756C273.419 22.7316 273.116 21.6837 272.486 20.7618C269.784 16.809 266.541 16.0684 262.258 18.3413C256.605 21.3416 253.728 26.2685 252.128 32.1348C250.347 38.6683 249.94 45.3556 249.846 52.0685C249.789 56.074 249.846 60.0796 249.153 64.0447C249.023 64.7873 248.795 65.5151 248.584 66.2419C248.069 68.0193 247.134 69.4089 245.103 69.7111C242.827 70.0498 240.822 69.5936 239.353 67.7015C237.233 64.9721 236.525 61.7235 236.097 58.4478C235.072 50.5951 234.582 42.7004 235.442 34.8054C236.389 26.1074 238.727 17.862 244.991 11.2591C251.008 4.91614 258.577 1.50262 267.333 1.02892C274.683 0.631306 280.117 4.37349 284.484 9.83076C288.658 15.0461 290.431 21.247 291.764 27.5828C293.502 35.8431 294.533 44.2108 295.424 52.7457Z" fill="black"/>
<path d="M96.3964 66.8179C96.1867 69.2046 95.6461 69.9161 93.484 70.5482C90.1228 71.5309 86.9348 70.804 83.8842 69.3919C82.1456 68.5871 81.4814 66.9227 81.0195 65.2106C79.8761 60.972 79.0561 56.6636 78.2681 52.3524C76.8574 44.6335 75.4426 36.914 74.1657 29.1731C73.2686 23.7349 72.0019 18.3245 72 12.784C71.9984 7.99676 75.1297 5.88617 79.7171 7.40462C80.5459 7.67896 81.393 8.01138 82.1025 8.49866C83.4837 9.44726 84.4437 9.37087 85.8305 8.19884C91.0482 3.78921 96.8045 0.276327 103.953 0.0290933C109.173 -0.151407 114.332 0.473706 119.046 2.87105C123.735 5.25605 124.368 12.246 120.332 15.5373C118.173 17.2983 115.727 16.9669 113.247 16.5833C109.774 16.0463 106.326 15.315 102.762 16.0306C98.297 16.9268 95.5506 19.5057 94.3711 23.7933C93.0998 28.415 93.198 33.1204 93.4523 37.8343C93.858 45.3547 95.4584 52.7342 96.1992 60.2124C96.4106 62.3463 96.7403 64.5115 96.3964 66.8179Z" fill="black"/>
<path d="M314.542 68.5552C310.956 66.7926 310.312 63.2044 309.959 59.5779C308.761 47.3099 308.942 34.9893 309.155 22.6814C309.223 18.7121 309.412 14.7083 310.234 10.8001C311.041 6.96509 314.592 4.32855 317.989 5.15056C319.867 5.60519 321.124 6.89926 321.676 9.02572C322.442 11.9771 322.623 15.0398 322.774 18.0597C323.409 30.7886 324.072 43.5203 323.994 56.2789C323.979 58.7732 323.968 61.2905 323.311 63.6965C322.092 68.1577 318.946 69.9039 314.542 68.5552Z" fill="black"/>
<path d="M214.69 34.2491C216.038 39.3801 212.857 43.6446 207.642 43.9786C204.717 44.166 202.433 43.1326 200.905 40.4633C199.401 37.836 199.927 35.2914 201.342 32.8527C202.816 30.3124 204.51 27.7425 207.693 28.0207C211.185 28.326 213.273 30.8953 214.69 34.2491Z" fill="black"/>
</svg>
