<svg width="985" height="321" viewBox="0 0 985 321" fill="none" xmlns="http://www.w3.org/2000/svg">
<path d="M897.804 159.214C898.353 167.64 898.812 175.609 899.426 183.567C899.884 189.498 899.063 195.234 896.834 200.695C892.712 210.794 882.401 214.535 869.256 211.004C861.681 208.97 856.898 204.609 855.121 196.621C848.979 169.009 844.749 141.068 840.265 113.166C837.944 98.7217 835.333 84.324 831.986 70.0774C831.232 66.865 830.315 63.6408 828.409 60.8041C820.236 48.6419 810.422 46.3634 797.466 53.3568C780.365 62.5881 771.66 77.7475 766.82 95.7974C761.429 115.9 760.2 136.476 759.914 157.131C759.743 169.455 759.915 181.779 757.818 193.98C757.425 196.265 756.736 198.504 756.098 200.74C754.54 206.209 751.71 210.484 745.566 211.414C738.679 212.456 732.614 211.053 728.169 205.231C721.757 196.833 719.615 186.838 718.32 176.759C715.217 152.597 713.736 128.306 716.337 104.014C719.201 77.252 726.277 51.882 745.227 31.5658C763.431 12.0494 786.33 1.54649 812.82 0.0889703C835.055 -1.13442 851.495 10.3797 864.708 27.171C877.336 43.218 882.701 62.2972 886.733 81.7915C891.99 107.207 895.11 132.953 897.804 159.214Z" fill="black"/>
<path d="M952.804 200.436C940.685 195.144 938.511 184.373 937.315 173.486C933.269 136.658 933.881 99.6715 934.598 62.7232C934.829 50.8073 935.466 38.7879 938.245 27.0555C940.972 15.543 952.974 7.62813 964.451 10.0958C970.798 11.4606 975.045 15.3454 976.91 21.729C979.498 30.5889 980.112 39.7832 980.621 48.849C982.768 87.0608 985.007 125.281 984.743 163.583C984.692 171.07 984.655 178.627 982.435 185.85C978.318 199.242 967.685 204.484 952.804 200.436Z" fill="black"/>
<path d="M654.869 100.921C659.17 116.456 649.019 129.367 632.381 130.379C623.05 130.946 615.762 127.817 610.888 119.735C606.09 111.781 607.768 104.076 612.282 96.6925C616.984 89.0014 622.389 81.2203 632.546 82.0628C643.686 82.987 650.347 90.7661 654.869 100.921Z" fill="black"/>
<path d="M139.936 181.293C138.944 174.428 137.412 168.128 135.517 161.92C135.042 160.364 134.631 158.694 133.17 157.408C130.539 157.176 128.669 159.082 126.581 160.252C112.902 167.918 99.2421 175.635 83.4103 178.012C55.147 182.254 32.8655 171.76 16.7938 148.936C-6.50326 115.85 -4.34611 81.7988 15.7767 48.119C26.6152 29.9785 41.149 15.4593 61.3218 7.78967C85.6517 -1.46046 122.584 0.925102 145.405 30.7399C158.134 47.3706 166.639 65.5691 171.968 85.5909C177.914 107.93 183.807 130.277 186.716 153.263C189.822 177.799 189.62 202.429 188.402 227.072C187.958 236.068 186.752 244.986 184.621 253.723C177.374 283.436 159.071 303.463 130.331 313.401C102.592 322.993 74.51 323.05 46.5074 313.959C42.5272 312.667 38.8122 310.82 35.2211 308.675C17.8371 298.29 15.7126 278.6 23.3976 263.742C27.8152 255.201 36.4875 253.015 46.7351 257.385C53.1667 260.127 59.502 263.131 66.0533 265.549C78.0425 269.975 90.3345 272.2 103.254 270.552C114.261 269.149 122.657 263.989 128.748 254.884C136.417 243.423 140.448 230.764 141.581 217.024C142.561 205.16 141.687 193.436 139.936 181.293ZM69.5701 134.362C76.4248 136.333 83.0452 135.723 89.5086 132.713C96.8064 129.314 103.572 125.171 109.396 119.532C115.439 113.68 118.721 106.783 118.702 98.229C118.668 83.4743 116.096 69.3804 108.245 56.6656C103.007 48.1817 94.9908 44.488 86.5957 47.5881C63.9136 55.9641 43.2577 73.2375 45.9256 103.993C47.1703 118.341 56.171 130.879 69.5701 134.362Z" fill="black"/>
<path d="M517.639 198.971C509.005 207.079 499.507 211.077 487.586 210.609C466.225 209.772 444.954 208.864 424.826 200.788C397.302 189.745 382.518 168.923 379.379 139.728C375.323 101.996 386.262 68.3761 408.09 37.9155C421.878 18.6753 441.386 9.70588 464.37 7.93388C483.269 6.47688 501.794 8.82435 520.076 14.2982C549.182 23.0127 554.342 46.6345 545.403 68.567C535.174 93.6627 515.925 110.45 490.785 120.409C477.537 125.656 463.684 126.909 449.569 126.434C443.744 126.238 437.907 126.317 432.078 126.41C428.335 126.469 426.79 128.192 427.455 132.213C429.825 146.567 435.181 152.411 449.357 155.86C463.191 159.226 477.392 159.269 491.439 160.712C502.194 161.818 513.024 162.671 523.207 166.652C532.91 170.446 534.769 176.618 529.323 185.559C526.252 190.601 522.112 194.691 517.639 198.971ZM469.673 76.5182C476.461 73.0187 483.566 69.9837 489.149 64.584C492.606 61.2403 492.019 58.9237 487.468 57.3426C481.82 55.3797 475.908 55.9148 470.168 56.4558C457.139 57.6836 446.356 63.3429 438.595 74.1275C437.375 75.8223 435.437 77.6962 436.474 79.919C437.659 82.4589 440.436 82.5884 442.971 82.7088C452.186 83.1464 460.666 80.3696 469.673 76.5182Z" fill="black"/>
<path d="M285.271 205.369C284.637 212.705 283.004 214.891 276.471 216.834C266.314 219.855 256.68 217.621 247.462 213.28C242.208 210.807 240.201 205.691 238.805 200.429C235.35 187.401 232.872 174.159 230.491 160.908C226.228 137.184 221.953 113.458 218.094 89.6652C215.383 72.9507 211.555 56.3216 211.55 39.2923C211.545 24.5786 221.007 18.0915 234.87 22.7586C237.374 23.6018 239.934 24.6235 242.078 26.1212C246.252 29.0367 249.153 28.8019 253.343 25.1996C269.11 11.6464 286.505 0.849308 308.107 0.0894201C323.88 -0.465359 339.47 1.45597 353.713 8.82434C367.883 16.1548 369.795 37.6388 357.6 47.7548C351.075 53.1673 343.686 52.1489 336.19 50.9699C325.696 49.3193 315.278 47.0715 304.506 49.271C291.014 52.0257 282.715 59.9518 279.151 73.1301C275.309 87.3351 275.606 101.797 276.375 116.286C277.601 139.401 282.437 162.082 284.675 185.066C285.314 191.625 286.311 198.28 285.271 205.369Z" fill="black"/>
</svg>
